<?xml version="1.0" standalone="no"?>
<!DOCTYPE svg PUBLIC "-//W3C//DTD SVG 20010904//EN"
 "http://www.w3.org/TR/2001/REC-SVG-20010904/DTD/svg10.dtd">
<svg version="1.0" xmlns="http://www.w3.org/2000/svg"
 width="16.000000pt" height="16.000000pt" viewBox="0 0 16.000000 16.000000"
 preserveAspectRatio="xMidYMid meet">
<metadata>
Created by potrace 1.11, written by Peter Selinger 2001-2013
</metadata>
<g transform="translate(0.000000,16.000000) scale(0.000721,-0.000721)"
fill="#000000" stroke="none">
<path d="M10837 22174 c-1 -1 -94 -5 -207 -9 -113 -3 -223 -8 -245 -10 -22 -2
-83 -6 -135 -9 -52 -4 -108 -9 -125 -11 -16 -2 -64 -7 -105 -10 -127 -10 -394
-41 -510 -60 -14 -2 -70 -11 -125 -19 -124 -19 -172 -26 -199 -32 -11 -2 -48
-9 -81 -14 -72 -12 -313 -60 -445 -90 -1755 -393 -3390 -1211 -4765 -2384 -77
-66 -160 -139 -185 -161 -25 -23 -76 -71 -115 -105 -310 -281 -731 -721 -990
-1034 -22 -26 -45 -53 -50 -59 -6 -7 -65 -79 -131 -162 -599 -751 -1103 -1579
-1474 -2425 -39 -91 -78 -178 -85 -195 -7 -16 -39 -95 -70 -175 -32 -80 -63
-158 -70 -175 -19 -44 -121 -332 -167 -470 -163 -499 -295 -1022 -382 -1515
-30 -168 -34 -197 -51 -310 -12 -82 -14 -95 -20 -140 -3 -25 -8 -61 -10 -80
-3 -19 -8 -57 -11 -85 -3 -27 -7 -61 -9 -75 -2 -14 -6 -54 -10 -90 -3 -36 -8
-81 -10 -100 -2 -19 -7 -69 -10 -110 -3 -41 -8 -95 -10 -120 -3 -25 -7 -106
-11 -180 -4 -74 -8 -160 -10 -190 -3 -74 -3 -869 1 -950 1 -36 6 -132 9 -213
4 -81 9 -156 11 -165 1 -9 6 -62 9 -117 4 -55 9 -107 11 -115 2 -8 7 -51 10
-94 4 -43 8 -86 10 -95 1 -9 6 -43 9 -76 3 -33 9 -78 12 -100 3 -22 7 -51 9
-65 108 -794 334 -1693 597 -2375 300 -775 571 -1325 981 -1985 76 -123 294
-453 319 -485 5 -5 54 -73 109 -150 175 -242 490 -638 638 -800 20 -22 74 -83
121 -135 348 -387 719 -740 1200 -1143 363 -305 956 -716 1430 -994 296 -173
751 -409 1005 -521 50 -22 110 -49 135 -60 297 -135 753 -305 1159 -432 580
-182 1264 -331 1851 -404 118 -15 302 -36 365 -41 39 -3 84 -8 100 -10 17 -2
75 -7 130 -10 55 -4 120 -9 145 -11 272 -22 1132 -22 1400 0 25 2 90 7 145 11
55 3 111 8 125 10 14 2 61 6 105 10 44 3 94 8 110 10 17 2 53 7 80 10 84 9
272 33 315 40 14 2 45 7 70 10 25 3 113 17 195 31 1996 335 3854 1208 5389
2533 221 192 202 174 355 319 196 184 387 378 596 603 42 45 187 210 294 334
40 47 98 119 207 255 551 689 1057 1515 1411 2305 25 55 56 125 70 155 79 173
249 613 336 870 166 490 325 1100 402 1545 3 17 7 41 9 55 12 64 46 273 56
345 6 44 13 91 15 105 13 80 45 372 60 535 15 182 16 191 31 515 5 125 5 797
-1 925 -12 273 -18 380 -30 505 -2 25 -7 74 -10 110 -3 36 -8 81 -10 100 -2
19 -7 60 -10 90 -5 48 -15 127 -31 250 -2 19 -6 49 -9 65 -3 17 -7 48 -10 70
-4 22 -18 108 -32 190 -13 83 -27 164 -30 180 -2 17 -25 127 -49 245 -247
1183 -686 2318 -1294 3348 -47 79 -89 151 -95 161 -43 75 -230 360 -338 517
-1010 1459 -2336 2643 -3907 3489 -104 56 -586 295 -595 295 -2 0 -48 20 -101
45 -53 25 -98 45 -101 45 -2 0 -30 12 -61 26 -156 71 -558 225 -832 317 -610
206 -1334 378 -1945 461 -22 3 -87 12 -145 20 -58 8 -136 18 -175 21 -38 4
-77 9 -85 10 -8 2 -55 6 -105 10 -49 4 -97 9 -106 10 -9 2 -67 6 -130 10 -63
4 -125 9 -139 11 -84 9 -943 26 -953 18z"/>
</g>
</svg>
